<?xml version="1.0" encoding="UTF-8" standalone="no"?>
<svg width="42px" height="42px" viewBox="0 0 42 42" version="1.1" xmlns="http://www.w3.org/2000/svg" xmlns:xlink="http://www.w3.org/1999/xlink">
    <!-- Generator: Sketch 43.2 (39069) - http://www.bohemiancoding.com/sketch -->
    <title>billing</title>
    <desc>Created with Sketch.</desc>
    <defs></defs>
    <g id="Iconsdeliverable-Copy" stroke="none" stroke-width="1" fill="none" fill-rule="evenodd">
        <g id="billing">
            <g id="Group-2" transform="translate(-2.000000, 18.623408)" fill-rule="nonzero">
                <path d="M11.1976993,4.14333541 C8.45630762,4.14333541 6.05328198,4.78206286 4.34265355,5.72356167 L1.79864205,5.72356167 L1.79864205,6.61228091 L1.79864205,7.10625964 L1.79864205,7.30378792 L1.79864205,7.50131621 L1.79864205,8.88401418 C1.79864205,11.5024491 6.00628669,13.624693 11.1976993,13.624693 C16.389112,13.624693 20.5967566,11.5024491 20.5967566,8.88401418 L20.5967566,7.50131621 L20.5967566,7.30378792 L20.5967566,7.10625964 L20.5967566,6.61228091 L20.5967566,5.72356167 L18.0527451,5.72356167 C16.3421167,4.78206286 13.939091,4.14333541 11.1976993,4.14333541 Z" id="Shape" fill="#F39C12"></path>
                <path d="M20.596276,5.68505188 C20.596276,8.30317074 16.3886313,10.4257307 11.1972187,10.4257307 C6.00580606,10.4257307 1.79816142,8.30317074 1.79816142,5.68505188 C1.79816142,3.06693301 6.00580606,0.944373101 11.1972187,0.944373101 C16.3886313,0.944373101 20.596276,3.06693301 20.596276,5.68505188 Z" id="Shape" fill="#F1C40F"></path>
            </g>
            <g id="Group-2" transform="translate(3.874469, 26.456033)" fill-rule="nonzero">
                <path d="M11.1976993,4.14333541 C8.45630762,4.14333541 6.05328198,4.78206286 4.34265355,5.72356167 L1.79864205,5.72356167 L1.79864205,6.61228091 L1.79864205,7.10625964 L1.79864205,7.30378792 L1.79864205,7.50131621 L1.79864205,8.88401418 C1.79864205,11.5024491 6.00628669,13.624693 11.1976993,13.624693 C16.389112,13.624693 20.5967566,11.5024491 20.5967566,8.88401418 L20.5967566,7.50131621 L20.5967566,7.30378792 L20.5967566,7.10625964 L20.5967566,6.61228091 L20.5967566,5.72356167 L18.0527451,5.72356167 C16.3421167,4.78206286 13.939091,4.14333541 11.1976993,4.14333541 Z" id="Shape" fill="#F39C12"></path>
                <path d="M20.596276,5.68505188 C20.596276,8.30317074 16.3886313,10.4257307 11.1972187,10.4257307 C6.00580606,10.4257307 1.79816142,8.30317074 1.79816142,5.68505188 C1.79816142,3.06693301 6.00580606,0.944373101 11.1972187,0.944373101 C16.3886313,0.944373101 20.596276,3.06693301 20.596276,5.68505188 Z" id="Shape" fill="#F1C40F"></path>
            </g>
            <g id="Group-2" transform="translate(21.497877, 22.539721)" fill-rule="nonzero">
                <path d="M11.1976993,4.14333541 C8.45630762,4.14333541 6.05328198,4.78206286 4.34265355,5.72356167 L1.79864205,5.72356167 L1.79864205,6.61228091 L1.79864205,7.10625964 L1.79864205,7.30378792 L1.79864205,7.50131621 L1.79864205,8.88401418 C1.79864205,11.5024491 6.00628669,13.624693 11.1976993,13.624693 C16.389112,13.624693 20.5967566,11.5024491 20.5967566,8.88401418 L20.5967566,7.50131621 L20.5967566,7.30378792 L20.5967566,7.10625964 L20.5967566,6.61228091 L20.5967566,5.72356167 L18.0527451,5.72356167 C16.3421167,4.78206286 13.939091,4.14333541 11.1976993,4.14333541 Z" id="Shape" fill="#F39C12"></path>
                <path d="M20.596276,5.68505188 C20.596276,8.30317074 16.3886313,10.4257307 11.1972187,10.4257307 C6.00580606,10.4257307 1.79816142,8.30317074 1.79816142,5.68505188 C1.79816142,3.06693301 6.00580606,0.944373101 11.1972187,0.944373101 C16.3886313,0.944373101 20.596276,3.06693301 20.596276,5.68505188 Z" id="Shape" fill="#F1C40F"></path>
            </g>
            <g id="Group-2" transform="translate(3.874469, 16.665251)" fill-rule="nonzero">
                <path d="M11.1976993,4.14333541 C8.45630762,4.14333541 6.05328198,4.78206286 4.34265355,5.72356167 L1.79864205,5.72356167 L1.79864205,6.61228091 L1.79864205,7.10625964 L1.79864205,7.30378792 L1.79864205,7.50131621 L1.79864205,8.88401418 C1.79864205,11.5024491 6.00628669,13.624693 11.1976993,13.624693 C16.389112,13.624693 20.5967566,11.5024491 20.5967566,8.88401418 L20.5967566,7.50131621 L20.5967566,7.30378792 L20.5967566,7.10625964 L20.5967566,6.61228091 L20.5967566,5.72356167 L18.0527451,5.72356167 C16.3421167,4.78206286 13.939091,4.14333541 11.1976993,4.14333541 Z" id="Shape" fill="#F39C12"></path>
                <path d="M20.596276,5.68505188 C20.596276,8.30317074 16.3886313,10.4257307 11.1972187,10.4257307 C6.00580606,10.4257307 1.79816142,8.30317074 1.79816142,5.68505188 C1.79816142,3.06693301 6.00580606,0.944373101 11.1972187,0.944373101 C16.3886313,0.944373101 20.596276,3.06693301 20.596276,5.68505188 Z" id="Shape" fill="#F1C40F"></path>
            </g>
            <g id="Group-2" transform="translate(15.623408, 22.539721)" fill-rule="nonzero">
                <path d="M11.1976993,4.14333541 C8.45630762,4.14333541 6.05328198,4.78206286 4.34265355,5.72356167 L1.79864205,5.72356167 L1.79864205,6.61228091 L1.79864205,7.10625964 L1.79864205,7.30378792 L1.79864205,7.50131621 L1.79864205,8.88401418 C1.79864205,11.5024491 6.00628669,13.624693 11.1976993,13.624693 C16.389112,13.624693 20.5967566,11.5024491 20.5967566,8.88401418 L20.5967566,7.50131621 L20.5967566,7.30378792 L20.5967566,7.10625964 L20.5967566,6.61228091 L20.5967566,5.72356167 L18.0527451,5.72356167 C16.3421167,4.78206286 13.939091,4.14333541 11.1976993,4.14333541 Z" id="Shape" fill="#F39C12"></path>
                <path d="M20.596276,5.68505188 C20.596276,8.30317074 16.3886313,10.4257307 11.1972187,10.4257307 C6.00580606,10.4257307 1.79816142,8.30317074 1.79816142,5.68505188 C1.79816142,3.06693301 6.00580606,0.944373101 11.1972187,0.944373101 C16.3886313,0.944373101 20.596276,3.06693301 20.596276,5.68505188 Z" id="Shape" fill="#F1C40F"></path>
            </g>
            <g id="Group-2" transform="translate(19.539721, 16.665251)" fill-rule="nonzero">
                <path d="M11.1976993,4.14333541 C8.45630762,4.14333541 6.05328198,4.78206286 4.34265355,5.72356167 L1.79864205,5.72356167 L1.79864205,6.61228091 L1.79864205,7.10625964 L1.79864205,7.30378792 L1.79864205,7.50131621 L1.79864205,8.88401418 C1.79864205,11.5024491 6.00628669,13.624693 11.1976993,13.624693 C16.389112,13.624693 20.5967566,11.5024491 20.5967566,8.88401418 L20.5967566,7.50131621 L20.5967566,7.30378792 L20.5967566,7.10625964 L20.5967566,6.61228091 L20.5967566,5.72356167 L18.0527451,5.72356167 C16.3421167,4.78206286 13.939091,4.14333541 11.1976993,4.14333541 Z" id="Shape" fill="#F39C12"></path>
                <path d="M20.596276,5.68505188 C20.596276,8.30317074 16.3886313,10.4257307 11.1972187,10.4257307 C6.00580606,10.4257307 1.79816142,8.30317074 1.79816142,5.68505188 C1.79816142,3.06693301 6.00580606,0.944373101 11.1972187,0.944373101 C16.3886313,0.944373101 20.596276,3.06693301 20.596276,5.68505188 Z" id="Shape" fill="#F1C40F"></path>
            </g>
            <g id="Group-2" transform="translate(11.707095, 12.748939)" fill-rule="nonzero">
                <path d="M11.1976993,4.14333541 C8.45630762,4.14333541 6.05328198,4.78206286 4.34265355,5.72356167 L1.79864205,5.72356167 L1.79864205,6.61228091 L1.79864205,7.10625964 L1.79864205,7.30378792 L1.79864205,7.50131621 L1.79864205,8.88401418 C1.79864205,11.5024491 6.00628669,13.624693 11.1976993,13.624693 C16.389112,13.624693 20.5967566,11.5024491 20.5967566,8.88401418 L20.5967566,7.50131621 L20.5967566,7.30378792 L20.5967566,7.10625964 L20.5967566,6.61228091 L20.5967566,5.72356167 L18.0527451,5.72356167 C16.3421167,4.78206286 13.939091,4.14333541 11.1976993,4.14333541 Z" id="Shape" fill="#F39C12"></path>
                <path d="M20.596276,5.68505188 C20.596276,8.30317074 16.3886313,10.4257307 11.1972187,10.4257307 C6.00580606,10.4257307 1.79816142,8.30317074 1.79816142,5.68505188 C1.79816142,3.06693301 6.00580606,0.944373101 11.1972187,0.944373101 C16.3886313,0.944373101 20.596276,3.06693301 20.596276,5.68505188 Z" id="Shape" fill="#F1C40F"></path>
            </g>
            <g id="Group-2" transform="translate(7.790782, 6.874469)" fill-rule="nonzero">
                <path d="M11.1976993,4.14333541 C8.45630762,4.14333541 6.05328198,4.78206286 4.34265355,5.72356167 L1.79864205,5.72356167 L1.79864205,6.61228091 L1.79864205,7.10625964 L1.79864205,7.30378792 L1.79864205,7.50131621 L1.79864205,8.88401418 C1.79864205,11.5024491 6.00628669,13.624693 11.1976993,13.624693 C16.389112,13.624693 20.5967566,11.5024491 20.5967566,8.88401418 L20.5967566,7.50131621 L20.5967566,7.30378792 L20.5967566,7.10625964 L20.5967566,6.61228091 L20.5967566,5.72356167 L18.0527451,5.72356167 C16.3421167,4.78206286 13.939091,4.14333541 11.1976993,4.14333541 Z" id="Shape" fill="#F39C12"></path>
                <path d="M20.596276,5.68505188 C20.596276,8.30317074 16.3886313,10.4257307 11.1972187,10.4257307 C6.00580606,10.4257307 1.79816142,8.30317074 1.79816142,5.68505188 C1.79816142,3.06693301 6.00580606,0.944373101 11.1972187,0.944373101 C16.3886313,0.944373101 20.596276,3.06693301 20.596276,5.68505188 Z" id="Shape" fill="#F1C40F"></path>
            </g>
            <g id="Group-2" transform="translate(9.748939, 1.000000)" fill-rule="nonzero">
                <path d="M11.1976993,4.14333541 C8.45630762,4.14333541 6.05328198,4.78206286 4.34265355,5.72356167 L1.79864205,5.72356167 L1.79864205,6.61228091 L1.79864205,7.10625964 L1.79864205,7.30378792 L1.79864205,7.50131621 L1.79864205,8.88401418 C1.79864205,11.5024491 6.00628669,13.624693 11.1976993,13.624693 C16.389112,13.624693 20.5967566,11.5024491 20.5967566,8.88401418 L20.5967566,7.50131621 L20.5967566,7.30378792 L20.5967566,7.10625964 L20.5967566,6.61228091 L20.5967566,5.72356167 L18.0527451,5.72356167 C16.3421167,4.78206286 13.939091,4.14333541 11.1976993,4.14333541 Z" id="Shape" fill="#F39C12"></path>
                <path d="M20.596276,5.68505188 C20.596276,8.30317074 16.3886313,10.4257307 11.1972187,10.4257307 C6.00580606,10.4257307 1.79816142,8.30317074 1.79816142,5.68505188 C1.79816142,3.06693301 6.00580606,0.944373101 11.1972187,0.944373101 C16.3886313,0.944373101 20.596276,3.06693301 20.596276,5.68505188 Z" id="Shape" fill="#F1C40F"></path>
            </g>
            <path d="M17.5,11.7698603 L17.5,13.7280167" id="Line" stroke="#FFE87C" opacity="0.841826026" stroke-linecap="square"></path>
            <path d="M14.5,17.6443296 L14.5,19.602486" id="Line" stroke="#FFE87C" opacity="0.841826026" stroke-linecap="square"></path>
            <path d="M19.5,23.5187988 L19.5,25.4769552" id="Line" stroke="#FFE87C" opacity="0.841826026" stroke-linecap="square"></path>
            <path d="M30.5,27.4351117 L30.5,29.3932681" id="Line" stroke="#FFE87C" opacity="0.841826026" stroke-linecap="square"></path>
            <path d="M12.5,27.4351117 L12.5,29.3932681" id="Line" stroke="#FFE87C" opacity="0.841826026" stroke-linecap="square"></path>
            <path d="M12.5,37.2258938 L12.5,39.1840502" id="Line" stroke="#FFE87C" opacity="0.841826026" stroke-linecap="square"></path>
            <path d="M25.5,33.3095809 L25.5,35.2677373" id="Line" stroke="#FFE87C" opacity="0.841826026" stroke-linecap="square"></path>
        </g>
    </g>
</svg>