<?xml version="1.0" encoding="UTF-8" standalone="no"?>
<svg width="21px" height="21px" viewBox="0 0 21 21" version="1.1" xmlns="http://www.w3.org/2000/svg" xmlns:xlink="http://www.w3.org/1999/xlink">
    <!-- Generator: Sketch 43.2 (39069) - http://www.bohemiancoding.com/sketch -->
    <title>document__sm</title>
    <desc>Created with Sketch.</desc>
    <defs>
        <filter x="-15.6%" y="-13.9%" width="131.2%" height="127.8%" filterUnits="objectBoundingBox" id="filter-1">
            <feOffset dx="0" dy="0" in="SourceAlpha" result="shadowOffsetOuter1"></feOffset>
            <feGaussianBlur stdDeviation="0.5" in="shadowOffsetOuter1" result="shadowBlurOuter1"></feGaussianBlur>
            <feColorMatrix values="0 0 0 0 0   0 0 0 0 0   0 0 0 0 0  0 0 0 0.5 0" type="matrix" in="shadowBlurOuter1" result="shadowMatrixOuter1"></feColorMatrix>
            <feMerge>
                <feMergeNode in="shadowMatrixOuter1"></feMergeNode>
                <feMergeNode in="SourceGraphic"></feMergeNode>
            </feMerge>
        </filter>
    </defs>
    <g id="Iconsdeliverable-Copy" stroke="none" stroke-width="1" fill="none" fill-rule="evenodd">
        <g id="document__sm">
            <g id="Doc" filter="url(#filter-1)" transform="translate(3.000000, 2.000000)">
                <path d="M1.76050147,0 C0.788176509,0 0,0.879902076 0,1.96538324 L0,15.7230659 C0,16.8089401 0.788176509,17.6884491 1.76050147,17.6884491 L7.04200589,17.6884491 L8.80250736,17.6884491 L14.0840118,17.6884491 C15.0566888,17.6884491 15.8445132,16.8089401 15.8445132,15.7230659 L15.8445132,1.96538324 C15.8445132,0.879902076 15.0566888,0 14.0840118,0 L8.80250736,0 L7.04200589,0 L1.76050147,0 Z" id="Shape" stroke="#7B7A7C" fill="#ECF0F1"></path>
                <g id="Group" transform="translate(1.760501, 3.064657)" fill="#9B9B9B">
                    <polygon id="Shape" points="0 3 0 5.26712578 12.3235103 5.26712578 12.3235103 3"></polygon>
                    <polygon id="Shape" points="0 -2.27373675e-13 0 1.73416168 12.3235103 1.73416168 12.3235103 -2.27373675e-13"></polygon>
                </g>
                <rect id="Rectangle" fill="#9FCAE6" x="1.7644043" y="9.73170732" width="12.3196075" height="4.08026804"></rect>
                <path d="M1.7644043,11.4686361 C1.7644043,11.4686361 4.3126534,12.6951172 5.94127228,12.6951172 C7.56989116,12.6951172 8.26779872,11.4230337 9.96612777,11.4686361 C10.6253479,11.486337 12.0872241,12.1118657 12.6031264,12.107519 C13.1190287,12.1031723 14.0840118,11.4686361 14.0840118,11.4686361 L14.0840118,15.5477067 L1.7644043,15.5477067 L1.7644043,11.4686361 Z" id="Rectangle" fill="#4990E2"></path>
            </g>
        </g>
    </g>
</svg>