<?xml version="1.0" encoding="UTF-8"?>
<svg width="40px" height="40px" viewBox="0 0 40 40" version="1.1" xmlns="http://www.w3.org/2000/svg" xmlns:xlink="http://www.w3.org/1999/xlink">
    <!-- Generator: Sketch 42 (36781) - http://www.bohemiancoding.com/sketch -->
    <title>add-user</title>
    <desc>Created with Sketch.</desc>
    <defs></defs>
    <g id="Icons" stroke="none" stroke-width="1" fill="none" fill-rule="evenodd">
        <g id="add-user" fill-rule="nonzero">
            <g id="Add-a-New-User" transform="translate(3.000000, 1.000000)">
                <g id="Add-Client">
                    <path d="M0,37.1338082 L0,35.3220354 C0.828506673,32.225551 3.84427096,29.8537757 6.95945606,29.1949492 L13.5875094,27.7784723 L21.0440695,27.7784723 L27.6721229,29.1949492 C30.8204482,29.886717 33.8030723,32.225551 34.6315789,35.3220354 L34.6315789,37.1338082 L0,37.1338082 Z" id="XMLID_6231_" fill="#38862A"></path>
                    <path d="M0,35.2092799 L0.497104004,33.7702151 C1.32561068,31.3107224 3.84427096,29.4268557 6.95945606,28.9035593 L13.5875094,27.7784723 L21.0440695,27.7784723 L27.6721229,28.9035593 C30.8204482,29.4530205 33.3059683,31.3107224 34.1344749,33.7702151 L34.6315789,35.2092799 L0,35.2092799 Z" id="XMLID_6231_" fill="#4CA93B"></path>
                    <path d="M16.9149608,32.9323395 C16.9149608,32.9323395 19.7699846,31.6846488 20.5083528,29.6296287 C21.2467211,27.5746086 19.8684337,26.7917438 19.8684337,26.7917438 L19.8684337,26.057808 C19.8684337,26.057808 20.9267615,25.95995 21.4682315,26.4492404 C22.0097015,26.9385309 22.3296611,27.1097826 22.772682,27.1587117 C23.215703,27.2076407 24.7170517,26.9629955 25.2585217,28.1372927 C25.7999917,29.3115898 25.4061953,29.6785577 23.3879889,30.8283904 C21.3697824,31.978223 16.9149608,33.7396688 16.9149608,33.7396688 L16.9149608,32.9323395 Z" id="XMLID_6200_" fill="#ADE278"></path>
                    <path d="M16.9395731,32.9323395 C16.9395731,32.9323395 14.0845494,31.6846488 13.3461811,29.6296287 C12.6078129,27.5746086 13.9861003,26.7917438 13.9861003,26.7917438 L13.9861003,26.057808 C13.9861003,26.057808 12.9277725,25.95995 12.3863025,26.4492404 C11.8448324,26.9385309 11.5248729,27.1097826 11.0818519,27.1587117 C10.638831,27.2076407 9.13748231,26.9629955 8.59601229,28.1372927 C8.05454226,29.3115898 8.44833864,29.6785577 10.4665451,30.8283904 C12.4847516,31.978223 16.9395731,33.7396688 16.9395731,33.7396688 L16.9395731,32.9323395 Z" id="XMLID_6199_" fill="#ADE278"></path>
                    <path d="M6.3809078,18.2617291 L6.3809078,21.9069433 C6.3809078,21.9069433 5.71637641,17.9192258 4.19041543,16.8183221 L4.19041543,16.0843864 C4.19041543,16.1088509 6.3809078,15.1547345 6.3809078,18.2617291 Z" id="XMLID_6196_" fill="#643D3C"></path>
                    <path d="M27.4982388,18.2617291 L27.4982388,21.9069433 C27.4982388,21.9069433 28.1135456,18.0904774 29.5902821,16.8183222 L29.6641189,15.7663476 C29.6887311,15.7663476 27.4982388,15.1547345 27.4982388,18.2617291 Z" id="XMLID_6195_" fill="#643D3C"></path>
                    <path d="M12.3542344,27.269379 C16.2902164,27.269379 13.5925588,26.3968572 13.5925588,26.3968572 C13.5925588,26.3968572 19.7898043,25.6100021 20.6721526,26.1093056 C21.5545009,26.6086092 24.0497076,29.113562 24.0497076,29.113562 L23.0053986,30.5978356 L16.569711,33.1425732 L12.2665057,30.1007285 C12.2665057,30.1007285 8.4182525,27.269379 12.3542344,27.269379 Z" id="Path-2" fill="#ADE278"></path>
                    <path d="M16.5950015,29.7682244 L17.7025539,29.7682244 C21.9112527,29.7682244 27.4982389,26.3676554 27.4982389,22.2086862 L27.4982389,9.34034619 C27.4982389,0.557581798 6.35629561,0.557581798 6.35629561,9.34034619 L6.35629561,22.2086862 C6.38090789,26.3676554 12.3863027,29.7682244 16.5950015,29.7682244 Z" id="XMLID_6223_" fill="#EBA339"></path>
                    <path d="M27.4982389,18.2617286 C28.4335053,16.5247473 29.5656699,16.8672507 29.5656699,16.8672507 C29.5656699,16.8672507 29.664119,16.1577794 29.8117926,14.689908 C29.9594662,13.2220365 29.9102417,12.4636362 29.9102417,12.4636362 C30.205589,12.7572105 30.6486099,13.5156108 30.6486099,13.5156108 C30.6486099,13.5156108 31.2393045,12.218991 30.1317522,9.20985441 C29.0488121,6.20071786 26.5137479,5.93160809 24.9385624,4.09676873 C23.3633769,2.26192938 21.5174563,0.549412644 16.4473279,0.182444772 C11.3771995,-0.184523099 8.79291073,3.65640729 8.79291073,3.65640729 C8.79291073,3.65640729 7.56229703,3.82765896 5.47025376,6.17625334 C3.37821048,8.52484772 3.57510867,12.1945264 3.57510867,12.1945264 L4.09196642,11.4850552 C4.0181296,13.760256 4.19041551,16.7938571 4.19041551,16.7938571 C5.81482559,16.8672507 6.38090789,18.2127995 6.38090789,18.2127995 L6.38090789,17.3076121 C6.55319381,9.20985441 11.5494854,8.2068089 11.5494854,8.2068089 C11.5494854,8.2068089 12.3124659,6.07839524 15.9058579,6.46982764 C19.4992499,6.86126003 21.1482722,9.20985441 21.1482722,9.20985441 L21.1482722,9.16092536 C21.1482722,9.16092536 22.9695805,10.7511195 24.0525205,12.7572105 C25.1354606,14.7633015 25.4554201,15.8642051 25.4554201,15.8642051 L25.6523183,12.26792 C25.6523183,12.26792 27.2028916,14.2006175 27.3997898,15.5217018 C27.5720757,16.8917152 27.4982389,18.2617286 27.4982389,18.2617286 Z" id="XMLID_6202_" fill="#643D3C"></path>
                </g>
            </g>
        </g>
    </g>
</svg>