<?xml version="1.0" encoding="UTF-8"?>
<svg width="40px" height="40px" viewBox="0 0 40 40" version="1.1" xmlns="http://www.w3.org/2000/svg" xmlns:xlink="http://www.w3.org/1999/xlink">
    <!-- Generator: Sketch 42 (36781) - http://www.bohemiancoding.com/sketch -->
    <title>custom-fields</title>
    <desc>Created with Sketch.</desc>
    <defs>
        <path d="M30.1212121,23.8181818 L8.78787879,23.8181818 C8.05454545,23.8181818 7.45454545,24.3090909 7.45454545,24.9090909 L7.45454545,31.4545455 C7.45454545,32.0545455 8.05454545,32.5454545 8.78787879,32.5454545 L30.1212121,32.5454545 C30.8545455,32.5454545 31.4545455,32.0545455 31.4545455,31.4545455 L31.4545455,24.9090909 C31.4545455,24.3090909 30.8545455,23.8181818 30.1212121,23.8181818 Z" id="path-1"></path>
        <mask id="mask-2" maskContentUnits="userSpaceOnUse" maskUnits="objectBoundingBox" x="0" y="0" width="24" height="8.72727273" fill="white">
            <use xlink:href="#path-1"></use>
        </mask>
        <path d="M30.1212121,12.9090909 L8.78787879,12.9090909 C8.05454545,12.9090909 7.45454545,13.4 7.45454545,14 L7.45454545,20.5454545 C7.45454545,21.1454545 8.05454545,21.6363636 8.78787879,21.6363636 L30.1212121,21.6363636 C30.8545455,21.6363636 31.4545455,21.1454545 31.4545455,20.5454545 L31.4545455,14 C31.4545455,13.4 30.8545455,12.9090909 30.1212121,12.9090909 Z" id="path-3"></path>
        <mask id="mask-4" maskContentUnits="userSpaceOnUse" maskUnits="objectBoundingBox" x="0" y="0" width="24" height="8.72727273" fill="white">
            <use xlink:href="#path-3"></use>
        </mask>
    </defs>
    <g id="icons" stroke="none" stroke-width="1" fill="none" fill-rule="evenodd">
        <g id="custom-fields">
            <path d="M2,11.4909091 L2,13.1272727 L2,14.7636364 L2,18.0363636 L2,19.6727273 L2,21.3090909 L2,22.9454545 L2,24.5818182 L2,27.8545455 L2,29.4909091 L2,32.7636364 L2,34.4 C2,36.2 3.4652,37.6727273 5.27272727,37.6727273 L20,37.6727273 L34.7272727,37.6727273 C36.5354545,37.6727273 38,36.2 38,34.4 L38,32.7636364 L38,29.4909091 L38,22.9454545 L38,19.6727273 L38,14.7636364 L38,13.1272727 L38,11.4909091 L2,11.4909091 Z" id="Shape" fill="#BDC3C7" fill-rule="nonzero"></path>
            <path d="M5.27272727,3.30909091 C3.4652,3.30909091 2,4.77429091 2,6.58181818 L2,11.4909091 L38,11.4909091 L38,6.58181818 C38,4.77429091 36.5354545,3.30909091 34.7272727,3.30909091 L20,3.30909091 L5.27272727,3.30909091 Z" id="Shape" fill="#797979" fill-rule="nonzero"></path>
            <path d="M2,9.85454545 L2,11.4909091 L2,13.1272727 L2,16.4 L2,18.0363636 L2,19.6727273 L2,21.3090909 L2,22.9454545 L2,26.2181818 L2,27.8545455 L2,31.1272727 L2,32.7636364 C2,34.5718182 3.4652,36.0363636 5.27272727,36.0363636 L20,36.0363636 L34.7272727,36.0363636 C36.5354545,36.0363636 38,34.5718182 38,32.7636364 L38,31.1272727 L38,27.8545455 L38,21.3090909 L38,18.0363636 L38,13.1272727 L38,11.4909091 L38,9.85454545 L2,9.85454545 Z" id="Shape" fill="#ECF0F1" fill-rule="nonzero"></path>
            <path d="M6.90909091,6.58181818 C6.90909091,7.48555686 6.17646595,8.21818182 5.27272727,8.21818182 C4.36898859,8.21818182 3.63636364,7.48555686 3.63636364,6.58181818 C3.63636364,5.6780795 4.36898859,4.94545455 5.27272727,4.94545455 C6.17646595,4.94545455 6.90909091,5.6780795 6.90909091,6.58181818 L6.90909091,6.58181818 Z" id="Shape" fill="#FF0000" fill-rule="nonzero"></path>
            <path d="M11.8181818,6.58181818 C11.8181818,7.48555686 11.0855569,8.21818182 10.1818182,8.21818182 C9.2780795,8.21818182 8.54545455,7.48555686 8.54545455,6.58181818 C8.54545455,5.6780795 9.2780795,4.94545455 10.1818182,4.94545455 C11.0855569,4.94545455 11.8181818,5.6780795 11.8181818,6.58181818 L11.8181818,6.58181818 Z" id="Shape" fill="#27AE60" fill-rule="nonzero"></path>
            <path d="M16.7272727,6.58181818 C16.7272727,7.48555686 15.9946478,8.21818182 15.0909091,8.21818182 C14.1871704,8.21818182 13.4545455,7.48555686 13.4545455,6.58181818 C13.4545455,5.6780795 14.1871704,4.94545455 15.0909091,4.94545455 C15.9946478,4.94545455 16.7272727,5.6780795 16.7272727,6.58181818 L16.7272727,6.58181818 Z" id="Shape" fill="#F8E81C" fill-rule="nonzero"></path>
            <use id="Shape" stroke="#2C8EE0" mask="url(#mask-2)" stroke-width="2" fill-rule="nonzero" xlink:href="#path-1"></use>
            <use id="Path" stroke="#2C8EE0" mask="url(#mask-4)" stroke-width="2" stroke-dasharray="2" xlink:href="#path-3"></use>
        </g>
    </g>
</svg>