<?xml version="1.0" encoding="UTF-8" standalone="no"?>
<svg width="42px" height="42px" viewBox="0 0 42 42" version="1.1" xmlns="http://www.w3.org/2000/svg" xmlns:xlink="http://www.w3.org/1999/xlink">
    <!-- Generator: Sketch 43.2 (39069) - http://www.bohemiancoding.com/sketch -->
    <title>reporting</title>
    <desc>Created with Sketch.</desc>
    <defs>
        <linearGradient x1="50%" y1="0%" x2="50%" y2="100%" id="linearGradient-1">
            <stop stop-color="#EBA339" offset="0%"></stop>
            <stop stop-color="#D9942D" offset="100%"></stop>
        </linearGradient>
    </defs>
    <g id="Iconsdeliverable-Copy" stroke="none" stroke-width="1" fill="none" fill-rule="evenodd">
        <g id="reporting">
            <g id="1492740873_Finance_financial_report" transform="translate(2.000000, 1.000000)">
                <g id="training" fill-rule="nonzero">
                    <rect id="Rectangle-path" fill="#E9E9E9" x="1.31034483" y="5.33333333" width="35.3793103" height="28.6666667"></rect>
                    <g id="Group" opacity="0.2" transform="translate(1.310345, 5.333333)" fill="#37474F">
                        <rect id="Rectangle-path" x="0" y="0" width="35.3793103" height="1.33333333"></rect>
                    </g>
                    <g id="Group" transform="translate(0.000000, 3.333333)">
                        <path d="M38,1.33333333 C38,2.06666667 37.4103448,2.66666667 36.6896552,2.66666667 L1.31034483,2.66666667 C0.589655172,2.66666667 0,2.06666667 0,1.33333333 L0,1.33333333 C0,0.6 0.589655172,0 1.31034483,0 L36.6896552,0 C37.4103448,0 38,0.6 38,1.33333333 L38,1.33333333 Z" id="Shape" fill="#90A4AE"></path>
                        <path d="M0.182793103,0.904761905 L37.8165517,0.904761905 C37.5885517,0.367333333 37.1705517,0 36.6896552,0 L1.31034483,0 C0.829448276,0 0.410793103,0.367333333 0.182793103,0.904761905 Z" id="Shape" fill="#B0BEC5"></path>
                        <path d="M0.182793103,2 C0.410793103,2.53742857 0.829448276,2.9047619 1.31034483,2.9047619 L36.6896552,2.9047619 C37.1705517,2.9047619 37.5885517,2.53742857 37.8172069,2 L0.182793103,2 Z" id="Shape" fill="#78909C"></path>
                    </g>
                    <g id="Group" transform="translate(0.000000, 33.333333)">
                        <path d="M38,1.33333333 C38,2.06666667 37.4103448,2.66666667 36.6896552,2.66666667 L1.31034483,2.66666667 C0.589655172,2.66666667 0,2.06666667 0,1.33333333 L0,1.33333333 C0,0.6 0.589655172,0 1.31034483,0 L36.6896552,0 C37.4103448,0 38,0.6 38,1.33333333 L38,1.33333333 Z" id="Shape" fill="#90A4AE"></path>
                        <path d="M0.182793103,0.904761905 L37.8165517,0.904761905 C37.5878966,0.367333333 37.1705517,0 36.689,0 L1.31034483,0 C0.829448276,0 0.410793103,0.367333333 0.182793103,0.904761905 Z" id="Shape" fill="#B0BEC5"></path>
                        <path d="M0.182793103,2 C0.410793103,2.53742857 0.829448276,2.9047619 1.31034483,2.9047619 L36.6896552,2.9047619 C37.1705517,2.9047619 37.5885517,2.53742857 37.8172069,2 L0.182793103,2 Z" id="Shape" fill="#78909C"></path>
                    </g>
                    <path d="M17.6896552,3.33333333 L17.6896552,1.33333333 C17.6896552,0.597333333 18.2766897,0 19,0 L19,0 C19.7233103,0 20.3103448,0.597333333 20.3103448,1.33333333 L20.3103448,3.33333333 L17.6896552,3.33333333 Z" id="Shape" fill="#607D8B"></path>
                    <polygon id="Shape" fill="#607D8B" points="27.5172414 42 30.137931 42 28.1724138 36 25.5517241 36"></polygon>
                    <polygon id="Shape" fill="#607D8B" points="10.4827586 42 7.86206897 42 9.82758621 36 12.4482759 36"></polygon>
                    <rect id="Rectangle-path" fill="#546E7A" x="4.5862069" y="10.6666667" width="5.24137931" height="1"></rect>
                    <rect id="Rectangle-path" fill="#546E7A" x="4.5862069" y="8.66666667" width="5.24137931" height="1"></rect>
                    <rect id="Rectangle-path" fill="#0070BB" x="5.24137931" y="19.3333333" width="2.62068966" height="6"></rect>
                    <rect id="Rectangle-path" fill="#0070BB" x="9.82758621" y="16" width="2.62068966" height="9.33333333"></rect>
                    <rect id="Rectangle-path" fill="#40BC53" x="14.4137931" y="12" width="2.62068966" height="13.3333333"></rect>
                    <rect id="Rectangle-path" fill="#546E7A" x="4.5862069" y="26" width="13.1034483" height="1"></rect>
                    <rect id="Rectangle-path" fill="#546E7A" x="20.9655172" y="25.3333333" width="5.24137931" height="1"></rect>
                    <rect id="Rectangle-path" fill="#546E7A" x="20.9655172" y="22.6666667" width="12.4482759" height="1"></rect>
                    <rect id="Rectangle-path" fill="#546E7A" x="20.9655172" y="20" width="12.4482759" height="1"></rect>
                    <rect id="Rectangle-path" fill="#546E7A" x="20.9655172" y="17.3333333" width="12.4482759" height="1"></rect>
                </g>
                <polygon id="Shape" fill="#FF7043" fill-rule="nonzero" points="33.671931 10.2433333 33.4137931 8.66666667 31.8643103 8.93 31.315931 9.71 32.4081034 9.52466667 30.0665172 12.862 27.4595862 10.8733333 24.8061379 14.248 22.1638276 12.9033333 20.6929655 15.1486667 21.238069 15.518 22.3878966 13.7633333 24.9869655 15.0853333 27.5748966 11.7933333 30.2093448 13.8046667 32.942069 9.912 33.1242069 11.024"></polygon>
                <rect id="Rectangle" fill="#E8E8E8" x="2" y="7" width="34" height="21"></rect>
            </g>
            <circle id="Oval" fill="url(#linearGradient-1)" cx="19.5" cy="20.5" r="11.5"></circle>
            <path d="M20.1605252,27.8068194 C22.2155533,29.6105596 24.9093566,30.704111 27.8585725,30.704111 C30.8077885,30.704111 33.5015917,29.6105596 35.5566198,27.8068194 L27.8585725,14.2220301 L20.1605252,27.8068194 Z" id="Combined-Shape" stroke="#E8E8E8" fill="#338DC9" transform="translate(27.858573, 22.463071) rotate(-76.000000) translate(-27.858573, -22.463071) "></path>
        </g>
    </g>
</svg>