<?xml version="1.0" encoding="UTF-8"?>
<svg width="40px" height="40px" viewBox="0 0 40 40" version="1.1" xmlns="http://www.w3.org/2000/svg" xmlns:xlink="http://www.w3.org/1999/xlink">
    <!-- Generator: Sketch 42 (36781) - http://www.bohemiancoding.com/sketch -->
    <title>firm-settings</title>
    <desc>Created with Sketch.</desc>
    <defs></defs>
    <g id="icons" stroke="none" stroke-width="1" fill="none" fill-rule="evenodd">
        <g id="firm-settings" fill-rule="nonzero">
            <path d="M8.50860833,5.93333333 L11.7789458,7.0125 L12.0175958,7.16666667 C12.5466958,6.85833333 13.0933708,6.55 13.6526875,6.24166667 L13.550475,5.93333333 L14.1978208,2.54166667 L17.1955917,1.77083333 L19.477875,4.39166667 L19.5457083,4.7 C20.1870417,4.54583333 20.8129583,4.54583333 21.4542917,4.7 L21.522125,4.39166667 L23.8037917,1.77083333 L26.8023333,2.54166667 L27.4498333,5.93333333 L27.3480833,6.24166667 C27.9061667,6.55 28.4534583,6.85833333 28.98225,7.16666667 L29.2212083,7.0125 L32.4910833,5.93333333 L34.671,8.09166667 L33.5810417,11.3291667 L33.343625,11.6375 C33.6920417,12.1 34.018875,12.7166667 34.296375,13.1791667 L34.6031667,13.1791667 L37.9763333,13.7958333 L38.7934167,16.725 L36.1710417,19.0375 L35.8981667,19.0375 C35.93825,19.8083333 35.93825,20.425 35.8981667,21.0416667 L36.1710417,21.0416667 L38.7934167,23.3541667 L37.9763333,26.4375 L34.6031667,27.0541667 L34.296375,26.9 C34.018875,27.5166667 33.6920417,27.9791667 33.343625,28.5958333 L33.5810417,28.75 L34.671,31.9875 L32.4910833,34.3 L29.2212083,33.0666667 L28.98225,32.9125 C28.4534583,33.2208333 27.9061667,33.5291667 27.3480833,33.8375 L27.4498333,34.1458333 L26.8023333,37.5375 L23.8037917,38.3083333 L21.522125,35.6875 L21.4542917,35.5333333 L19.5457083,35.5333333 L19.477875,35.6875 L17.1955917,38.3083333 L14.1976667,37.5375 L13.550475,34.1458333 L13.6526875,33.8375 C13.0933708,33.5291667 12.5466958,33.2208333 12.0174417,32.9125 L11.7789458,33.0666667 L8.50860833,34.3 L6.32838333,31.9875 L7.41849583,28.75 L7.65699167,28.5958333 C7.30749583,27.9791667 6.98035417,27.5166667 6.7031625,26.9 L6.396525,27.0541667 L3.023975,26.4375 L2.2063675,23.3541667 L4.82951333,21.0416667 L5.10192583,21.0416667 C5.06215083,20.425 5.06215083,19.8083333 5.10192583,19.0375 L4.82951333,19.0375 L2.2063675,16.725 L3.02395958,13.7958333 L6.39650958,13.1791667 L6.70314708,13.1791667 C6.98033875,12.7166667 7.30763458,12.1 7.65697625,11.6375 L7.41848042,11.3291667 L6.32836792,8.09166667 L8.50859292,5.93333333 L8.50860833,5.93333333 Z M12.8692125,12.4083333 C8.65475833,16.5708333 8.65475833,23.5083333 12.8692125,27.6708333 C17.0835125,31.8333333 23.9163333,31.8333333 28.13125,27.6708333 C32.344625,23.5083333 32.344625,16.5708333 28.13125,12.4083333 C23.9163333,8.24583333 17.0835125,8.24583333 12.8692125,12.4083333 Z" id="Shape" fill="#95A5A6"></path>
            <path d="M11.7789458,11.3291667 C16.5954208,6.55 24.4050417,6.55 29.2213625,11.3291667 C34.0375292,16.1083333 34.0375292,23.9708333 29.2213625,28.75 C24.4051958,33.5291667 16.5957292,33.5291667 11.7789458,28.75 C6.962625,23.9708333 6.96277917,16.1083333 11.7791,11.3291667 L11.7789458,11.3291667 Z M14.0615375,11.4833333 L17.4000167,14.7208333 C18.7640833,13.95 20.3227083,13.6416667 21.8289167,14.1041667 L23.9749167,9.7875 C20.6726667,8.70833333 16.9575583,9.325 14.0615375,11.4833333 L14.0615375,11.4833333 Z M11.8813125,13.6416667 C9.7131125,16.5708333 9.15872917,20.2708333 10.2801375,23.5083333 L14.4703875,21.35 C14.1356917,19.8083333 14.41535,18.2666667 15.2197917,17.0333333 L11.8813125,13.6416667 Z M18.3200833,17.8041667 C17.1155792,19.0375 17.1155792,21.0416667 18.3200833,22.275 C19.524125,23.5083333 21.475875,23.5083333 22.6799167,22.275 C23.8839583,21.0416667 23.8839583,19.0375 22.6799167,17.8041667 C21.475875,16.725 19.524125,16.725 18.3200833,17.8041667 Z M26.7005833,11.3291667 L24.5545833,15.4916667 C24.6501667,15.4916667 24.7673333,15.6458333 24.8598333,15.6458333 C25.9235833,16.725 26.5063333,18.1125 26.6312083,19.5 L31.2654583,20.2708333 C31.299375,17.3416667 30.272625,14.5666667 28.13125,12.4083333 C27.68725,11.9458333 27.1954583,11.6375 26.7005833,11.3291667 Z M11.7109583,26.2833333 C12.0610708,26.7458333 12.4255208,27.2083333 12.8692125,27.6708333 C15.0102792,29.8291667 17.8298333,30.9083333 20.6356667,30.7541667 L19.95425,26.1291667 C18.56675,26.1291667 17.2017583,25.5125 16.13955,24.4333333 C16.0467417,24.2791667 15.9866167,24.2791667 15.9010542,24.125 L11.7109583,26.2833333 L11.7109583,26.2833333 Z M26.1548333,22.5833333 C25.85575,23.2 25.4240833,23.8166667 24.8598333,24.4333333 C24.297125,25.05 23.6419167,25.3583333 22.9527917,25.6666667 L23.668125,30.4458333 C25.2992083,29.8291667 26.840875,28.9041667 28.13125,27.6708333 C29.421625,26.4375 30.3219583,24.8958333 30.8214583,23.2 L26.1548333,22.5833333 L26.1548333,22.5833333 Z" id="Shape" fill="#7F8C8D"></path>
        </g>
    </g>
</svg>