<?xml version="1.0" encoding="UTF-8"?>
<svg width="40px" height="40px" viewBox="0 0 40 40" version="1.1" xmlns="http://www.w3.org/2000/svg" xmlns:xlink="http://www.w3.org/1999/xlink">
    <!-- Generator: Sketch 42 (36781) - http://www.bohemiancoding.com/sketch -->
    <title>link-user-to-cases copy</title>
    <desc>Created with Sketch.</desc>
    <defs></defs>
    <g id="icons" stroke="none" stroke-width="1" fill="none" fill-rule="evenodd">
        <g id="link-user-to-cases-copy">
            <rect id="Rectangle-5" fill="#D3D3D3" x="15.4575163" y="1.04575163" width="10.4575163" height="10.4575163" rx="3"></rect>
            <rect id="Rectangle-5-Copy" fill="#D3D3D3" x="15.4575163" y="15.1633987" width="10.4575163" height="10.4575163" rx="3"></rect>
            <rect id="Rectangle-5-Copy-2" fill="#D3D3D3" x="15.4575163" y="29.2810458" width="10.4575163" height="10.4575163" rx="3"></rect>
            <path d="M34.2810458,19.3464052 L30.520362,19.3464052 L30.520362,16.6314731 L26.0155857,20.2916038 L30.520362,23.9517345 L30.520362,21.4379085 L36.372549,21.4379085 L36.372549,19.6078431 L36.372549,7.32026144 L34.2810458,7.32026144 L34.2810458,19.3464052 Z M25.3921569,5.22875817 L36.372549,5.22875817 L36.372549,7.32026144 L25.3921569,7.32026144 L25.3921569,5.22875817 Z" id="Combined-Shape" fill="#D3D3D3"></path>
            <path d="M13.8888889,33.9869281 L13.8888889,21.9607843 L15.9803922,21.9607843 L15.9803922,34.248366 L15.9803922,36.0784314 L10.1282051,36.0784314 L10.1282051,38.5922574 L5.62342886,34.9321267 L10.1282051,31.271996 L10.1282051,33.9869281 L13.8888889,33.9869281 Z M5,19.869281 L15.9803922,19.869281 L15.9803922,21.9607843 L5,21.9607843 L5,19.869281 Z" id="Combined-Shape-Copy" fill="#D3D3D3" transform="translate(10.490196, 29.230769) scale(-1, 1) translate(-10.490196, -29.230769) "></path>
            <rect id="Rectangle-5" fill="#40BC53" x="15.4575163" y="0" width="10.4575163" height="10.4575163" rx="3"></rect>
            <rect id="Rectangle-5-Copy" fill="#40BC53" x="15.4575163" y="14.1176471" width="10.4575163" height="10.4575163" rx="3"></rect>
            <rect id="Rectangle-5-Copy-2" fill="#40BC53" x="15.4575163" y="28.2352941" width="10.4575163" height="10.4575163" rx="3"></rect>
            <path d="M34.2810458,18.3006536 L30.520362,18.3006536 L30.520362,15.5857215 L26.0155857,19.2458522 L30.520362,22.9059829 L30.520362,20.3921569 L36.372549,20.3921569 L36.372549,18.5620915 L36.372549,6.2745098 L34.2810458,6.2745098 L34.2810458,18.3006536 Z M25.3921569,4.18300654 L36.372549,4.18300654 L36.372549,6.2745098 L25.3921569,6.2745098 L25.3921569,4.18300654 Z" id="Combined-Shape" fill="#40BC53"></path>
            <path d="M13.8888889,32.9411765 L10.1282051,32.9411765 L10.1282051,30.2262443 L5.62342886,33.8863751 L10.1282051,37.5465058 L10.1282051,35.0326797 L15.9803922,35.0326797 L15.9803922,33.2026144 L15.9803922,20.9150327 L13.8888889,20.9150327 L13.8888889,32.9411765 Z M5,18.8235294 L15.9803922,18.8235294 L15.9803922,20.9150327 L5,20.9150327 L5,18.8235294 Z" id="Combined-Shape-Copy" fill="#40BC53" transform="translate(10.490196, 28.185018) scale(-1, 1) translate(-10.490196, -28.185018) "></path>
        </g>
    </g>
</svg>